PathFileType  4	(X/Y/Z) C:\Users\antoi\Documents\MyRepositories\mobilecap\ResultsAnalysis
DataRate	CameraRate	NumFrames	NumMarkers	Units	OrigDataRate	OrigDataStartFrame	OrigNumFrames
100.0	100.0	6	51	mm	100.0	1	136
Frame#	Time	r_knee			r_shank_antsup			r_ankle			r_calc			r_5meta			r_toe			L_knee			L_shank_antsup			L_ankle			L_calc			L_5meta			L_toe			r_sh2			r_sh3			r_sh4			L_sh2			L_sh3			r_thigh1			r_thigh2			r_thigh3			r_thigh4			r_thigh5			L_thigh1			L_thigh2			L_thigh3			L_thigh4			r.ASIS			r.PSIS			L.ASIS			L.PSIS			C7			R_Shoulder			L_Shoulder			R_Sternum			L_Sternum			R_humerus			R_elbow_med			R_elbow_lat			R_forearm			R_wrist_radius			R_wrist_ulna			L_humerus			L_elbow_med			L_elbow_lat			L_forearm			L_wrist_radius			L_wrist_ulna			R_HJC			L_HJC			R_HJC_reg			L_HJC_reg			
		X1	Y1	Z1	X2	Y2	Z2	X3	Y3	Z3	X4	Y4	Z4	X5	Y5	Z5	X6	Y6	Z6	X7	Y7	Z7	X8	Y8	Z8	X9	Y9	Z9	X10	Y10	Z10	X11	Y11	Z11	X12	Y12	Z12	X13	Y13	Z13	X14	Y14	Z14	X15	Y15	Z15	X16	Y16	Z16	X17	Y17	Z17	X18	Y18	Z18	X19	Y19	Z19	X20	Y20	Z20	X21	Y21	Z21	X22	Y22	Z22	X23	Y23	Z23	X24	Y24	Z24	X25	Y25	Z25	X26	Y26	Z26	X27	Y27	Z27	X28	Y28	Z28	X29	Y29	Z29	X30	Y30	Z30	X31	Y31	Z31	X32	Y32	Z32	X33	Y33	Z33	X34	Y34	Z34	X35	Y35	Z35	X36	Y36	Z36	X37	Y37	Z37	X38	Y38	Z38	X39	Y39	Z39	X40	Y40	Z40	X41	Y41	Z41	X42	Y42	Z42	X43	Y43	Z43	X44	Y44	Z44	X45	Y45	Z45	X46	Y46	Z46	X47	Y47	Z47	X48	Y48	Z48	X49	Y49	Z49	X50	Y50	Z50	X51	Y51	Z51	

1	0.00000000	-8.53960	463.47976	-121.02251	66.84356	374.30998	-139.79607	104.12817	94.69994	-170.18541	79.11636	40.16810	-224.56080	228.51685	96.68212	-140.47213	251.55281	135.40653	-179.33546	-316.59068	453.15302	-413.31141	-316.10694	342.46215	-362.37386	-501.87310	101.40859	-367.84546	-559.20798	73.21819	-319.48229	-397.58628	35.06105	-383.83053	-356.43705	48.57091	-330.03773	97.46423	267.30109	-158.30082	13.42388	348.89119	-91.43612	27.66600	239.82342	-119.30055	-354.80411	374.33312	-433.99491	-409.49237	266.52614	-437.89487	-64.89678	769.72469	-120.11935	-11.80160	673.13017	-124.32526	-38.85811	630.07447	-77.19227	-150.81699	719.36349	-71.73568	-94.14165	618.18793	-70.93034	-160.07164	718.79637	-434.07290	-188.68362	583.89991	-421.56306	-263.02411	740.50690	-468.61186	-295.18982	605.99084	-449.38327	-91.73044	899.84707	-148.55205	-280.03936	937.64651	-203.24946	-97.96136	893.67171	-392.58477	-285.72980	945.69331	-319.11134	-249.08982	1393.91622	-258.81081	-205.64379	1357.07584	-104.25996	-175.20324	1373.06542	-411.81098	-123.04291	1341.42930	-232.29599	-119.10729	1340.46394	-276.08824	-216.42695	1228.18589	-39.26190	-311.24245	1048.58028	-113.36886	-311.05518	1057.13473	-37.36521	-310.14616	935.37159	-2.74880	-325.34689	830.25557	5.58075	-361.66057	842.67449	12.00939	-126.17425	1236.79953	-481.44011	-144.72082	1029.87983	-451.57355	-133.64147	1050.52006	-519.70976	-43.43707	1002.39324	-537.44960	60.09120	923.05953	-525.47162	41.63090	901.68696	-542.10413	-182.65833	826.59569	-167.46388	-186.89411	822.34668	-356.74498	-161.04774	817.97948	-184.58880	-168.93483	829.13279	-345.17349	
2	0.01000000	5.00551	461.69598	-120.86185	78.92199	371.46130	-140.80993	109.68230	91.78354	-170.32865	82.12071	41.96374	-225.58476	233.17250	87.94031	-140.43394	259.15348	125.44803	-178.60711	-304.15281	452.02404	-411.12560	-306.38283	340.81972	-361.01666	-499.12156	105.25693	-367.98594	-557.14081	78.65538	-319.74042	-396.99109	35.17986	-383.92942	-355.14175	47.49748	-330.28748	107.23516	263.79830	-159.32905	26.22697	347.11080	-91.30618	37.74149	237.84302	-118.87214	-344.33136	374.34512	-432.11240	-402.21383	268.27277	-436.70665	-48.90062	768.21005	-117.00840	3.37653	671.49495	-121.20908	-24.58379	628.08736	-75.25882	-135.85981	718.35503	-70.26390	-80.05348	616.63468	-69.99648	-146.88557	716.53154	-432.92330	-175.73492	582.22419	-420.19609	-250.32230	739.23977	-466.23476	-282.47523	604.51427	-446.87093	-76.32258	899.16272	-147.24692	-264.84497	936.47641	-202.29344	-83.16908	891.75773	-391.65525	-270.71142	943.91520	-318.13598	-236.54566	1392.15858	-257.40813	-192.92458	1355.48382	-102.88486	-162.78366	1371.67116	-410.50802	-110.06327	1340.36194	-230.83452	-106.11703	1339.27115	-274.64464	-203.35827	1226.57173	-37.87260	-297.62287	1046.57428	-111.99092	-297.59286	1055.23190	-36.04606	-296.37403	933.40277	-1.46994	-311.24192	828.23596	6.85412	-347.61291	840.60502	13.25351	-113.69893	1235.13600	-480.13246	-132.66037	1028.20561	-450.28754	-121.42214	1048.86824	-518.35246	-30.88388	1000.78090	-536.15249	72.39516	921.50040	-523.77457	54.06575	900.10780	-540.49156	-167.31276	825.73135	-165.94932	-171.80791	820.48881	-355.19903	-145.72309	816.90705	-182.83530	-153.87267	827.23647	-343.74675	
3	0.02000000	18.13634	460.04620	-120.46352	90.85034	368.86105	-141.49188	115.31615	89.11699	-170.45912	85.22517	43.83087	-226.55449	237.86141	79.36393	-140.59350	266.68771	115.52812	-178.20258	-291.23458	450.86162	-408.98534	-296.18657	339.16459	-359.82163	-496.06270	109.40785	-368.12984	-554.73317	84.53127	-319.99007	-396.26260	35.35019	-384.01303	-353.81055	46.43036	-330.48721	117.02061	260.61097	-160.09439	38.65628	345.47193	-91.10924	47.68673	236.05433	-118.51444	-333.42643	374.44261	-430.29486	-394.60348	270.22729	-435.58945	-33.04673	766.86159	-114.00248	18.37195	669.90693	-118.13503	-10.54711	626.25372	-73.26233	-121.02836	717.59673	-68.73691	-66.19780	615.29949	-68.92769	-133.50999	714.47443	-431.67038	-162.42141	580.62099	-418.81261	-237.39307	737.94669	-463.82461	-269.41063	603.01579	-444.29763	-60.92660	898.60812	-145.96763	-249.65642	935.51767	-201.24964	-68.33883	889.98625	-390.72921	-255.64506	942.29095	-317.09894	-223.96003	1390.55559	-255.96843	-180.20421	1354.04006	-101.47479	-150.39989	1370.43430	-409.20247	-97.06756	1339.47512	-229.35215	-93.14893	1338.28491	-273.18873	-190.24891	1225.08222	-36.48420	-283.85568	1044.64498	-110.61937	-283.98475	1053.40273	-34.73024	-282.38545	931.51449	-0.19547	-296.88594	826.27668	8.11098	-333.29812	838.57749	14.47982	-101.24823	1233.59634	-478.78942	-120.66245	1026.66824	-448.91869	-109.29547	1047.33237	-516.92069	-18.52632	999.20168	-534.79965	84.45490	919.86604	-522.08305	66.23508	898.47649	-538.87862	-151.96083	825.02281	-164.40946	-156.73476	818.79372	-353.62545	-130.47093	816.06544	-181.09222	-138.80564	825.48740	-342.32111	
4	0.03000000	30.60724	458.68061	-119.68366	102.50579	366.67129	-141.61367	120.99530	86.89940	-170.56947	88.43922	45.77856	-227.41626	242.52422	71.15473	-141.04242	273.98032	105.76022	-178.32001	-277.40687	449.63528	-406.95140	-285.10452	337.48102	-358.93979	-492.40419	114.12178	-368.28798	-551.66217	91.22861	-320.22792	-395.28844	35.62651	-384.07048	-352.42365	45.38039	-330.59835	126.76710	257.94426	-160.41219	50.42949	344.08817	-90.79181	57.34319	234.60259	-118.26051	-321.70361	374.68728	-428.61887	-386.34183	272.55250	-434.61647	-17.45691	765.84432	-111.18996	33.04523	668.46673	-115.16715	3.10319	624.74284	-71.17816	-106.41462	717.29589	-67.11585	-52.71427	614.38267	-67.63817	-119.77124	712.79344	-430.21940	-148.42187	579.15733	-417.39800	-224.04141	736.61451	-461.34027	-255.68372	601.47136	-441.62854	-45.57169	898.32926	-144.72363	-234.49661	934.94227	-200.06862	-53.43668	888.48243	-389.78674	-240.50581	940.94679	-315.96393	-211.30414	1389.24756	-254.46561	-167.47708	1352.87429	-100.00598	-138.05978	1369.48805	-407.89050	-84.05241	1338.91552	-227.83599	-80.21414	1337.67092	-271.71099	-177.06136	1223.83070	-35.09512	-269.81210	1042.86940	-109.26054	-270.10655	1051.72089	-33.42179	-268.00050	929.78367	1.07001	-282.06573	824.43926	9.33378	-318.49065	836.64047	15.67166	-88.85047	1232.29470	-477.38855	-108.78359	1025.39274	-447.39325	-97.34434	1046.01762	-515.35259	-6.52238	997.69101	-533.34530	96.06835	918.10257	-520.40132	77.91296	896.75805	-537.26411	-136.60936	824.62175	-162.81354	-141.67400	817.39727	-351.99075	-115.34496	815.65378	-179.35907	-123.71909	824.01839	-340.88113	
5	0.04000000	42.41805	457.75513	-118.52732	113.79688	364.93601	-141.12040	126.53595	85.24375	-170.66584	91.64779	47.73295	-228.12582	246.97935	63.56724	-141.72528	280.72620	96.37581	-178.96805	-262.33873	448.31870	-405.10277	-272.82879	335.75214	-358.49109	-487.87697	119.58413	-368.48420	-547.63028	99.03068	-320.46290	-393.98517	36.07556	-384.09941	-350.97299	44.37522	-330.60367	136.32506	255.84943	-160.23258	61.41012	343.03200	-90.32655	66.53252	233.56519	-118.08991	-308.85830	375.09899	-427.17100	-377.13405	275.33188	-433.85833	-2.22639	765.31095	-108.62903	47.32133	667.34344	-112.39970	16.34862	623.73208	-69.04610	-92.06447	717.58074	-65.38710	-39.60912	614.04344	-66.12316	-105.53689	711.59076	-428.49618	-133.50213	577.88854	-415.94627	-210.14053	735.24547	-458.73457	-241.06047	599.85341	-438.87402	-30.31979	898.48273	-143.49890	-219.42140	934.85608	-198.76021	-38.45026	887.33995	-388.77495	-225.31462	939.96287	-314.73523	-198.57759	1388.34545	-252.89253	-154.73973	1352.08449	-98.47332	-125.74253	1368.92672	-406.56674	-71.03764	1338.77346	-226.28707	-67.31639	1337.52611	-270.20813	-163.77147	1222.91042	-33.70126	-255.40674	1041.32417	-107.92063	-255.87932	1050.25872	-32.12511	-253.10567	928.28136	2.32125	-266.63628	822.78831	10.50694	-303.04064	834.85141	16.81621	-76.54417	1231.32616	-475.92813	-97.07750	1024.48278	-445.65686	-85.64108	1045.01030	-513.60886	5.02232	996.28774	-531.76243	107.09282	916.19099	-518.73237	88.93075	894.94577	-535.64696	-121.29650	824.66328	-161.12632	-126.61804	816.38945	-350.25641	-100.38106	815.81332	-177.61783	-108.59962	822.93390	-339.38703	
6	0.05000000	53.78699	457.39913	-117.14277	124.66666	363.61526	-140.14685	131.66543	84.16770	-170.77159	94.64984	49.56670	-228.66075	250.97542	56.88589	-142.48387	286.57423	87.70629	-179.99163	-245.80302	446.88470	-403.52435	-259.16244	333.96123	-358.54118	-482.22992	125.90517	-368.75816	-542.35705	108.12191	-320.72348	-392.29426	36.79051	-384.10898	-349.43832	43.47291	-330.51254	145.48816	254.26078	-159.65933	71.63103	342.34365	-89.72069	75.11821	232.96411	-117.93781	-294.66077	375.64913	-426.03126	-366.70719	278.56178	-433.37086	12.58868	765.38598	-106.34186	61.20356	666.74581	-109.94763	29.29851	623.37953	-66.97485	-77.96879	718.48598	-63.55931	-26.76263	614.38179	-64.46354	-90.72047	710.89081	-426.45541	-117.51940	576.85038	-414.46738	-195.63520	733.84516	-455.96278	-225.39194	598.12673	-436.09170	-15.25310	899.21073	-142.24931	-204.50732	935.29535	-197.38828	-23.39213	886.61385	-387.61220	-210.13106	939.36988	-313.45610	-185.80252	1387.91969	-251.26081	-141.98769	1351.73265	-96.88919	-113.40806	1368.80466	-405.22319	-58.05297	1339.07962	-224.71935	-54.45064	1337.87416	-268.68326	-150.36290	1222.38998	-32.29689	-240.59809	1040.08198	-106.60386	-241.26661	1049.08266	-30.84224	-237.64546	927.07036	3.55375	-250.50893	821.39193	11.62599	-286.86674	833.27002	17.90974	-64.36643	1230.75983	-474.42439	-85.58894	1024.01585	-443.67955	-74.23857	1044.37411	-511.67383	16.05797	995.03205	-530.04451	117.44809	914.14560	-517.07721	99.18378	893.05922	-534.02618	-106.08813	825.25057	-159.31192	-111.55585	815.80929	-348.38261	-85.59767	816.61764	-175.82784	-93.44246	822.30053	-337.77371	
